<svg id="Layer_1" data-name="Layer 1" xmlns="http://www.w3.org/2000/svg" viewBox="0 0 792 612"><defs><style>.cls-1{opacity:0.8;}.cls-2{fill:#f6d8e0;}.cls-3{fill:#fdf3f5;}.cls-4{fill:#fcf1f4;}.cls-5{fill:#f9e6eb;}.cls-6{fill:#f9e4ea;}.cls-7{fill:#fae8ec;}.cls-8{fill:#fbeef1;}.cls-9{fill:#f7dae2;}.cls-10{fill:#f7dee5;}</style></defs><g class="cls-1"><g class="cls-1"><path class="cls-2" d="M324.62,113.53c.21,1.78,4.18,2.4,8.1,3.41l-1.74-.85Z"/><path class="cls-2" d="M331,116.09l1.74.85c.5.13,1,.26,1.45.41Z"/><path class="cls-2" d="M324.76,112.72a1.55,1.55,0,0,0-.14.81l6.36,2.56C328.84,115,326.75,113.89,324.76,112.72Z"/><path class="cls-2" d="M334.17,117.35l3.37,1.31A17.25,17.25,0,0,0,334.17,117.35Z"/><path class="cls-3" d="M424.71,137.65c-13.53-4.14-26.81-9.12-40-14.37s-26.44-10.77-39.52-16.23c7,3.73,13.83,7.35,20,10.4C383.8,126.73,404.27,132.94,424.71,137.65Z"/><path class="cls-4" d="M306.57,90.05c-8.5-4-16.77-8.27-25-12.82A205.8,205.8,0,0,0,306.57,90.05Z"/><path class="cls-3" d="M423.27,137.67c-20.45-4.77-40.92-11.07-59.51-20.34-6.22-3.06-13.05-6.68-20-10.41-20.8-8.75-41.13-17.86-60.55-28.49-8.66-4.23-17-9.14-25.43-13.79-5.13-2.62-10.38-5.18-15.87-7.47a146.83,146.83,0,0,0-17.06-6,103.52,103.52,0,0,0-18.26-3.47A113.87,113.87,0,0,0,188,47.36a161.73,161.73,0,0,0-18,2.23c-5.89,1.06-11.65,2.42-17.33,3.88-11.35,3-22.3,6.46-33.1,9.68a280.78,280.78,0,0,1-32,8.06A101.87,101.87,0,0,1,56.4,72.34C36.27,69.81,18.24,57.74,3,41.29,1.18,39.43-4.45,33.36-9.9,26.88S-20.73,13.69-22.81,11.76c-2.11-2.45-4.2-4.95-6.3-7.46l-.46.32c4.83,7.12,9.47,14.2,15.33,21.31,1.69,2.16,3.47,4.23,5.3,6.25l2.75,3,1.35,1.52,1.36,1.5,3,3.38,3,3.22C4.51,47,6.64,48.91,8.68,51A109.23,109.23,0,0,0,21.91,61.63c2.28,1.69,4.78,3,7.23,4.47,1.25.68,2.55,1.25,3.84,1.89l2,.94c.66.29,1.34.52,2,.79,1.36.51,2.72,1,4.11,1.54l4.28,1.19a37.73,37.73,0,0,0,4.42,1,45.47,45.47,0,0,0,4.6.67l3,.33c1.07.11,2.2.29,3.37.47s2.4.28,3.65.44,2.53.24,3.81.37c5.15.4,10.45.42,14.36-.48C90.4,74,98,72.28,105.39,70.44s14.7-3.84,22-5.85c14.54-4,28.94-8.15,44.67-11.3a150.82,150.82,0,0,1,18.33-2.68,101.12,101.12,0,0,1,17.22-.08c11.4.88,22.55,3.89,34.61,9.25,5.44,2.23,13.54,5.48,18.61,8.12,8.21,4.4,16.11,9,24,13.3s15.85,8.38,24,12.31c16.22,7.83,32.87,15,49.58,22.32,7.81,3.1,14.74,8.46,22.79,10.89,10.88,2.87,21.54,6.08,32.25,8.89,2.63.82,4.71,3.43,10,5a186.41,186.41,0,0,0,30.08,6.65c9.85,1.33,19.51,2,29.12,2.72l-3.2-.75a271.36,271.36,0,0,1-28.48-4.3C441.58,143,432.37,140.51,423.27,137.67Z"/><path class="cls-3" d="M539.82,151.23c-3.1.32-6.13.6-9,.8,4.57.28,9.42.5,14.28.6a129.72,129.72,0,0,0,14.73-.45,63.15,63.15,0,0,0,14.28-2.89,36.7,36.7,0,0,0,12.07-6.58c-6.2,4.37-13.82,6.59-21.73,7.62S548.24,151.34,539.82,151.23Z"/><path class="cls-3" d="M508.88,151l.58.11c-10.14-.36-20.19-.94-30.07-2l3.2.75c5.7.44,11.38.86,17.08,1.46,1.51.16,3.06.33,4.63.46,2.17-.09,4.43-.23,6.74-.42l1.14.22c4.8.89,11.27.88,18.62.36l-4.67-.31C520.38,151.31,514.63,151.15,508.88,151Z"/><path class="cls-5" d="M500.59,167.27c-10-1.22-17.86-1.38-25.82-1.72s-16-.82-26-3.27c-14.53-3.44-28.25-7.15-41.73-11.19a306.38,306.38,0,0,0,46.13,12.63,309.55,309.55,0,0,0,46.89,4.6C499.63,168,499.6,167.66,500.59,167.27Z"/><path class="cls-6" d="M581.61,153.8A37.3,37.3,0,0,1,572.1,158a60.8,60.8,0,0,1-13.39,2.12c-8.66.43-16.42-.27-23.78-.72s-14.39-.9-21.42-1c-19.64-.5-40.82-.35-61.9-3.47a204,204,0,0,1-59.29-18.16q-12.42-6-25.87-11.71c-8.95-3.84-18.23-7.54-27.68-11.3-18.88-7.52-38.46-15.31-57.12-25.08-7.46-3.89-17.86-8.27-25.32-12.1-12.41-6.42-24.6-11.85-37.09-14.89a102.48,102.48,0,0,0-37.57-1.84l-12,1.5c-1.68.17-3.25.35-4.76.53s-3,.32-4.48.53a108.12,108.12,0,0,0-22.92,5.43c-2.69.82-8.41,1.32-11.09,2.15-15.34,4.87-30.92,9.59-47,11.4a101.74,101.74,0,0,1-24-.12c-1-.12-2-.32-3-.48s-2-.3-2.95-.54l-2.93-.69-1.46-.35-1.43-.45-2.86-.91a29.71,29.71,0,0,1-2.84-1l-5.55-2.29A97.65,97.65,0,0,1,12.15,61.69,147.7,147.7,0,0,1-5.23,44.86C-15.95,32.72-25.11,19.28-34,5.82A4.15,4.15,0,0,0-37.17,8c6.37,9.14,12.77,18.36,19.63,27.25a194.77,194.77,0,0,0,22.44,25c8.24,7.55,17.36,14.25,27.49,18.76a72.4,72.4,0,0,0,7.7,3L44,83.39l4,1a87.21,87.21,0,0,0,16,2.21c14.4.81,28.68-1.69,42.37-5.18s27.07-8,40.46-12,26.88-7.3,40.55-8.32a97.65,97.65,0,0,1,20.38.5,95.52,95.52,0,0,1,19.74,4.91c12.07,4.28,24,10.63,35.93,17.24,6,3.31,12,6.68,18.17,9.88s12.33,6.21,18.5,9a1.53,1.53,0,0,1,.17-.8c2,1.24,4,2.45,6.12,3.58l3.15,1.37a18.12,18.12,0,0,1,3.34,1.41l-3.34-1.41q-.7-.24-1.44-.45C326.5,116,349,121.47,360,127a338.94,338.94,0,0,0,64.14,24,303.08,303.08,0,0,0,33.62,6.8c10.86,1.53,21.12,2.52,30.3,3.47a465.57,465.57,0,0,0,52,1.4,150.51,150.51,0,0,0,23.53-1.94,70.48,70.48,0,0,0,11.09-2.87,52.27,52.27,0,0,0,10-4.81C583.59,153.37,582.55,153.59,581.61,153.8Z"/><path class="cls-7" d="M577.28,149.42l-1.58,0h-1.37c-1.32.67-2.76,1.2-4.24,1.78s-3.05,1-4.67,1.41a77.76,77.76,0,0,1-10.34,1.93c-7.25.91-15.11,1.14-23.16,1.38a450.14,450.14,0,0,1-49.15-1.13c-2.79-.17-8.26-1.86-13.72-3.08a175.31,175.31,0,0,0-17.65-1.67c-2.61-.17-5.16-.34-7.71-.71a50.3,50.3,0,0,1-7.81-1.66c-23.47-7-46.06-16.26-68.75-25.55s-45.51-18.28-67.61-28.58q-8.29-3.87-16.44-8c-5.43-2.77-10.84-5.65-16.3-8.49-10.93-5.66-22.09-11.22-33.93-15.33A116.48,116.48,0,0,0,214.66,57a101.25,101.25,0,0,0-18.78-1.43,130.45,130.45,0,0,0-18.65,1.69c-6.14,1-12.19,2.35-18.18,3.88-5.49,1.39-.75-3-9.18-1.35-11.05,2.79-21.09,6.05-30.8,8.82S100,73.62,90.55,74.5c-2.74-.08-10.33,3.19-18.34,4.13a70.57,70.57,0,0,1-21.38-.82A71.57,71.57,0,0,1,31.3,70.73a97.89,97.89,0,0,1-8.95-5.35L18.09,62.3c-.72-.49-1.4-1.06-2.09-1.62L13.93,59C8.45,54.5,3.15,49.58-2.14,44.26A158.74,158.74,0,0,1-18,25.72c-4.92-6.56-9.6-13.34-14.51-20A7.13,7.13,0,0,0-34,5.82c8.92,13.46,18.08,26.9,28.8,39A147.7,147.7,0,0,0,12.15,61.69,97.65,97.65,0,0,0,32.46,74.57L38,76.86a29.71,29.71,0,0,0,2.84,1l2.86.91,1.43.45,1.46.35,2.93.69c1,.24,2,.35,2.95.54s2,.36,3,.48a101.74,101.74,0,0,0,24,.12c16-1.81,31.62-6.53,47-11.4,2.68-.83,8.4-1.33,11.09-2.15a98.72,98.72,0,0,1,19.21-4.45c3-.41,6.18-.85,10.14-1.45s8.7-1.36,14.79-2.09a102.38,102.38,0,0,1,37.58,1.84c12.39,3,24.48,8.37,37.08,14.89,7.46,3.83,17.86,8.21,25.32,12.1,18.66,9.77,38.24,17.56,57.12,25.08,9.45,3.76,18.73,7.46,27.68,11.3s17.59,7.73,25.87,11.71a204,204,0,0,0,59.29,18.16c21.08,3.12,42.26,3,61.9,3.47,7,.07,14,.5,21.42,1s15.12,1.15,23.78.72A60.8,60.8,0,0,0,572.1,158a37.3,37.3,0,0,0,9.51-4.15,21.85,21.85,0,0,1-4.3.36,13.23,13.23,0,0,1-3.07-.49c-1.64-.54-2.52-1.42-2.77-2.42.73-.2,1.68-.41,2.68-.75S576.26,149.84,577.28,149.42Z"/><path class="cls-8" d="M591.92,146.22c-1.26.06-2.49.17-3.66.32s-2.37.19-3.42.33-2.11.17-3,.29-1.7.14-2.32.24c-1.26.18-1.95.32-1.66.46s1.51.22,4.17-.08c-1,.51-2,.95-3,1.41l-2.59,1c.35,1,1.28,1.74,3,2.13a9.91,9.91,0,0,0,3.12.15,18.91,18.91,0,0,0,4.29-.85c1.09-.88,2-1.82,2.89-2.67S591.27,147.09,591.92,146.22Z"/><path class="cls-8" d="M572.35,149.45a76.11,76.11,0,0,1-8.72,1.59c-9.41,1.89-19.8,2-30,2s-20.19-.36-29.28-1.19c-7.32.31-13.76,0-18.47-1.1-1.08-.29-2.16-.56-3.24-.82-9.61-.68-19.27-1.39-29.12-2.72a186.41,186.41,0,0,1-30.08-6.65c-5.32-1.54-7.4-4.15-10-5-10.71-2.81-21.37-6-32.25-8.89-8.05-2.43-15-7.79-22.79-10.89-16.71-7.27-33.36-14.49-49.58-22.32-8.11-3.93-16.11-8-24-12.31s-15.78-8.9-24-13.3c-5.07-2.64-13.17-5.89-18.61-8.12-12.06-5.36-23.21-8.37-34.61-9.25a101.12,101.12,0,0,0-17.22.08A150.82,150.82,0,0,0,172,53.29c-15.73,3.15-30.13,7.32-44.67,11.3-7.26,2-14.53,4-22,5.85S90.4,74,82.56,75.22c-3.91.9-9.21.88-14.36.48-1.28-.13-2.57-.18-3.81-.37s-2.47-.32-3.65-.44-2.3-.36-3.37-.47l-3-.33a45.47,45.47,0,0,1-4.6-.67,37.73,37.73,0,0,1-4.42-1l-4.28-1.19c-1.39-.5-2.75-1-4.11-1.54-.67-.27-1.35-.5-2-.79L33,68c-1.29-.64-2.59-1.21-3.84-1.89-2.45-1.48-4.95-2.78-7.23-4.47A109.23,109.23,0,0,1,8.68,51c-2-2-4.17-4-6.15-6.16l-3-3.22-3-3.38-1.36-1.5-1.35-1.52-2.75-3c-1.83-2-3.61-4.09-5.3-6.25-5.86-7.11-10.5-14.19-15.33-21.31L-31.28,5.8a9.48,9.48,0,0,0-1.26-.11c4.91,6.69,9.59,13.47,14.51,20A158.74,158.74,0,0,0-2.14,44.26C3.15,49.58,8.45,54.5,13.93,59L16,60.68c.69.56,1.37,1.13,2.09,1.62l4.26,3.08a97.89,97.89,0,0,0,9,5.35,71.57,71.57,0,0,0,19.53,7.08,70.57,70.57,0,0,0,21.38.82c8-.94,15.6-4.21,18.34-4.13,9.43-.88,18.83-3.18,28.52-5.94s19.75-6,30.8-8.82c8.43-1.64,3.69,2.74,9.18,1.35,6-1.53,12-2.88,18.18-3.88a130.45,130.45,0,0,1,18.65-1.69A101.25,101.25,0,0,1,214.66,57a116.48,116.48,0,0,1,18.19,4.8c11.84,4.11,23,9.67,33.93,15.33,5.46,2.84,10.87,5.72,16.3,8.49s10.91,5.42,16.44,8c22.1,10.3,44.9,19.25,67.61,28.58s45.28,18.59,68.75,25.55a50.3,50.3,0,0,0,7.81,1.66c2.55.37,5.1.54,7.71.71a175.31,175.31,0,0,1,17.65,1.67c5.46,1.22,10.93,2.91,13.72,3.08A450.14,450.14,0,0,0,531.92,156c8.05-.24,15.91-.47,23.16-1.38a77.76,77.76,0,0,0,10.34-1.93c1.62-.39,3.17-.92,4.67-1.41s2.92-1.11,4.24-1.78h-2Z"/><path class="cls-5" d="M239.88,75.42c10.83,4.82,21.66,11,33.23,17.33L278,95.41C265.21,88.37,252.56,80.67,239.88,75.42Z"/><path class="cls-5" d="M297.29,105.22c12.83,6.24,27.58,12.61,35.5,15.94-8.29-4.48-17.14-8.91-27.38-13.54A55.62,55.62,0,0,1,297.29,105.22Z"/><path class="cls-9" d="M521.81,168.43c5.13-.07,10.26-.21,15.39-.38s10.37-.36,15.83-.82a113.92,113.92,0,0,0,16.81-2.54,65.76,65.76,0,0,0,17.09-6.55,75.21,75.21,0,0,1-17.29,5.68A147.24,147.24,0,0,1,553,166.11c-5.42.48-10.7.78-15.77,1.15Z"/><path class="cls-10" d="M584.67,153a52.27,52.27,0,0,1-10,4.81,70.48,70.48,0,0,1-11.09,2.87A150.51,150.51,0,0,1,540,162.65a465.57,465.57,0,0,1-52-1.4c-9.18-.95-19.44-1.94-30.3-3.47a303.08,303.08,0,0,1-33.62-6.8A338.94,338.94,0,0,1,360,127c-10.95-5.48-33.45-11-51.87-20.54-3.9-1.14-7.86-1.92-8-3.7-6.17-2.81-12.36-5.82-18.5-9s-12.17-6.57-18.17-9.88c-12-6.61-23.86-13-35.93-17.24a95.52,95.52,0,0,0-19.74-4.91,97.65,97.65,0,0,0-20.38-.5c-13.67,1-27.18,4.41-40.55,8.32s-26.72,8.44-40.46,12-28,6-42.37,5.18A87.21,87.21,0,0,1,48,84.4l-4-1-3.91-1.3a72.4,72.4,0,0,1-7.7-3C22.26,74.54,13.14,67.84,4.9,60.29a194.77,194.77,0,0,1-22.44-25C-24.4,26.36-30.8,17.14-37.17,8c-.91,1.75-.84,4.53.52,8.4s4,8.81,8.47,14.78Q-21.91,40.25-15,48.57A162.87,162.87,0,0,0-.39,64.18l3.94,3.56,4.12,3.35c.69.54,1.36,1.12,2.07,1.64l2.17,1.53,2.16,1.53c.72.51,1.42,1,2.19,1.47L20.78,80a23.41,23.41,0,0,0,2.31,1.27l2.34,1.2a101.49,101.49,0,0,0,9.62,4.25c1.65.58,3.33,1.08,5,1.61l2.49.78,2.54.61c1.68.4,3.37.81,5.07,1.06s3.39.63,5.09.78A105,105,0,0,0,75.4,92c13.22-1,25.73-3.93,37.78-7.36,17.88-5.81,34.9-12.29,51.9-15.89-8.7,2.15-17.41,5.06-26.18,8.14,10.55-3.31,21-6.5,31.61-8.73a133.88,133.88,0,0,1,16-2.52,100.31,100.31,0,0,1,16.07-.36l-1.88-.15a82.56,82.56,0,0,1,15.4,2.08,96.88,96.88,0,0,1,19.47,6.22c6.43,2.75,12.77,6,19,9.42,4.39,2.32,11.09,6.08,18.56,10.21,1.26.65,7.87,4,15.27,7.68s15.55,7.49,19.65,9.86l5.33,2.4c11.79,5.31,23.35,10.24,34.67,15s22.36,9.51,33.5,14c13.11,4.63,26.44,9.16,40.42,13.91,4.78,1.67,10.31,3.29,15.92,4.71s11.36,2.6,16.52,3.43,9.68,1.44,13,1.85,5.29.6,5.4.69c7.32.69,14.65,1.09,22,1.28,10.43-.38,20.77-1,31.17-1.46,5.2-.23,10.4-.43,15.65-.56s10.77-.26,16.43-.62a90.18,90.18,0,0,0,17.66-4.14,34.86,34.86,0,0,0,11.12-6.06c2.2-1.85,3-3.37,3.1-4.28-.93.47-1.8.94-2.67,1.29S585.46,152.76,584.67,153Z"/></g></g><g class="cls-1"><g class="cls-1"><path class="cls-2" d="M664.58,143.78c.71,1.47,2.51.19,4.48-.69l-1,0Z"/><path class="cls-2" d="M668.05,143.12l1,0a7.49,7.49,0,0,1,.73-.3Z"/><path class="cls-2" d="M664.35,143a2.61,2.61,0,0,0,.23.77l3.47-.66A30.37,30.37,0,0,1,664.35,143Z"/><path class="cls-2" d="M669.79,142.79c.61-.13,1.24-.19,1.85-.3A4.33,4.33,0,0,0,669.79,142.79Z"/><path class="cls-3" d="M718.59,129c-2-.27-3.94-.4-5.91-.56l-5.93-.47-5.92-.22c-2-.08-4-.16-5.92-.11l-5.92,0c-2,0-3.94.16-5.91.23s-3.94.18-5.9.34l-5.88.56,6.5.45c2.11.21,4.13.42,6,.55C695.22,130.79,706.75,129.21,718.59,129Z"/><path class="cls-4" d="M648.13,132.56c-5.08,1.05-10.08,2.19-15,3.32A125.87,125.87,0,0,0,648.13,132.56Z"/><path class="cls-3" d="M717.79,129.35c-11.82.25-23.32,1.87-34.69.94-1.9-.12-3.92-.37-6-.52l-6.5-.45-2.33.23-2.32.32-4.65.66c-3.1.4-6.16,1-9.2,1.55-6.06,1.17-12,2.49-17.84,3.82a91.61,91.61,0,0,1-14.63,3.24c-5.65,1.15-11.17,2.25-16.77,2.9l-4.18.57c-1.4.2-2.82.27-4.23.42-2.82.23-5.62.58-8.48.67a287.24,287.24,0,0,1-34.58-.12c-23.4-1.37-47.37-4.92-72.47-8.43-2.93-.41-18.56-1.85-21.71-1l-5.31.26-.07.55c4.58.64,9.08,1.41,14.09,1.76,3,.39,6,.19,8.94.6,13.26,1.83,24.9,4.16,39.64,4.74,4.44,0,11.44,3.15,15.88,3,8.76.48,16.7,1.59,24.49,2.3,1.94.18,3.88.4,5.82.53s3.86.23,5.8.31l2.91.11c1,0,1.94,0,2.92,0q2.93-.06,5.91-.24c3.24-.29,6.19-.72,9-1.07,1.41-.16,2.77-.42,4.11-.66l4-.67c2.67-.38,5.29-.94,8.06-1.4l8.87-1.36c2.81-.55,6.91-2.08,9.75-2.75,9.28-1.85,18.72-4.07,28.44-5.83,2.43-.44,4.87-.85,7.34-1.22s5-.62,7.42-.92c1.24-.14,2.48-.3,3.72-.41l3.72-.26,3.73-.23,1.86-.12,1.86,0a31.2,31.2,0,0,1,6.92.61,20.06,20.06,0,0,0,6.84.42,70.66,70.66,0,0,1,9.09-1.52c1.53-.16,3.06-.36,4.59-.45l4.6-.24a6.29,6.29,0,0,1,2.42,1,9.15,9.15,0,0,0,3.53,1.16c2.9.41,5.76.6,8.58.84s5.58.49,8.33.68,5.44.58,8.12.9c1.35.14,2.67.38,4,.63s2.63.51,3.92.8c-.54-.3-1.09-.59-1.64-.88A219.91,219.91,0,0,0,717.79,129.35Z"/><path class="cls-3" d="M781,145.21c-1.7-.29-3.33-.6-4.87-1,9,4.47,19.57,9.17,29.65,13.43A228.8,228.8,0,0,0,781,145.21Z"/><path class="cls-3" d="M765,139.66l.28.2-2-.7-2-.61-4-1.21c-1.33-.39-2.64-.84-4-1.18l-4-1c.55.29,1.1.58,1.64.88a50.75,50.75,0,0,1,9,2.86l2.36,1,3.67.55.54.38c2.26,1.59,5.62,2.53,9.52,3.49l-2.28-1.17a35.19,35.19,0,0,0-4.33-1.88C768,140.64,766.54,140.13,765,139.66Z"/><path class="cls-5" d="M756.55,154.31a34.21,34.21,0,0,0-6.4-2.31c-2-.44-4-.69-5.92-.93l-2.93-.35c-1-.08-2-.19-3-.32a52.27,52.27,0,0,1-6.63-1.39q-2.64-.64-5.27-1.14c-.88-.16-1.75-.34-2.63-.45l-2.64-.3c-1.75-.18-3.49-.32-5.24-.45s-3.48-.09-5.22-.12c7.89.71,15.55,2,23.09,3.44,3.75.84,7.52,1.51,11.21,2.48,1.85.45,3.72.86,5.57,1.33l5.52,1.48C755.9,154.93,756,154.59,756.55,154.31Z"/><path class="cls-6" d="M797.75,161.89a38,38,0,0,1-11.21-4.15c-2-1-3.82-2-5.61-3l-2.64-1.5-2.61-1.37c-1.73-.9-3.42-1.77-5.12-2.57a48.2,48.2,0,0,0-5.21-2c-9.79-3.35-20.87-4.87-31.82-5.95s-21.84-1.69-32.14-3.88c-9.58-1.85-20.13-1.67-30.8,0-5.33.88-10.73,1.92-16.09,3.26l-16.14,4.11c-4.32,1.07-9.79,3.69-14.14,4.7-7.23,1.7-14.19,3.12-21,4.05-3.4.58-6.79.89-10.15,1.25s-6.71.57-10,.79c-1.3.08-2.47.11-3.53.09s-2-.15-2.93-.26c-1.8-.23-3.34-.56-4.92-.86s-3.2-.62-5.16-.84a49.71,49.71,0,0,0-7.23-.2c-1.47-.06-4.38-1.39-5.85-1.45-17-.37-34.24-2.39-51.46-4.86s-34.41-5.52-51.43-8.13A7.52,7.52,0,0,0,450,143c23.43,2.5,47.08,8.24,68.95,11.27a318.81,318.81,0,0,0,89.59,1c14.09-1.81,28.76-5.51,42.41-8.84a2.78,2.78,0,0,1-.27-.76,33.31,33.31,0,0,0,3.73-.1l1.73-.41a4.75,4.75,0,0,1,1.82-.44l-1.82.44-.72.33a114.62,114.62,0,0,0,15.73-3.14c2.49-.54,4.86-1.08,7-1.46a23.13,23.13,0,0,1,5.69-.33c11,1,23.26.81,35.23,1.5s23.6,2.15,32.57,5.24c9.17,2.94,17.49,5.9,25.28,8.55,7.73,2.81,15,5.13,21.86,7.22C798.44,162.71,798.07,162.3,797.75,161.89Z"/><path class="cls-7" d="M799.16,156.24c-.37-.61-.72-1.15-1-1.58q-2.6-.51-5.31-1.25c-1.82-.47-3.64-1.09-5.58-1.6-3.83-1.08-7.78-2.45-11.9-3.67s-8.3-2.55-12.5-3.88c-2.1-.65-4.24-1.18-6.34-1.79l-3.14-.9c-1-.29-2.11-.52-3.15-.78-1.45-.31-4.1-2.2-6.94-3.37a29,29,0,0,0-9.59-.73,26.09,26.09,0,0,1-8.45-.21A162.39,162.39,0,0,0,686,133.32a176.22,176.22,0,0,0-19.71,1.91c-3.26.55-6.53,1-9.75,1.74s-6.42,1.42-9.6,2.21c-12.7,3.17-25,7-37.6,9.61A214.24,214.24,0,0,1,571,153.11c-2.94.06,0-3-4.42-3.64-2.91-.2-5.73-.23-8.48-.41l-8.08-.49a85.49,85.49,0,0,1-15.39-2.5c-.7-.36-2.18-.19-4,.11a57,57,0,0,1-6.35.71c-16.31.09-30.56-5.07-46.9-6.11-8.84-.34-17.5-2.26-26.34-2.81a9,9,0,0,0-.55,1.24c17,2.61,34.21,5.63,51.43,8.13s34.49,4.49,51.46,4.86c1.47.06,4.38,1.39,5.85,1.45a35.11,35.11,0,0,1,10.37,1.15c1.58.29,3.28.59,5.42.81a45.14,45.14,0,0,0,8,.11c3.41-.22,6.77-.38,10.12-.8s6.72-.66,10.09-1.24c6.78-.92,13.68-2.32,21-4.05,4.35-1,9.82-3.63,14.14-4.7l16.14-4.11c5.36-1.34,10.76-2.38,16.09-3.26,10.67-1.68,21.22-1.86,30.8,0,10.3,2.19,21.16,2.79,32.14,3.88s22,2.6,31.82,5.95a48.2,48.2,0,0,1,5.21,2c1.7.8,3.39,1.67,5.12,2.57l2.61,1.37,2.64,1.5c1.79,1,3.65,2,5.61,3a38,38,0,0,0,11.21,4.15c-2.18-2.84-2.6-5.26-1.7-7.15C796.82,155.08,798,155.64,799.16,156.24Z"/><path class="cls-8" d="M797.39,153.67l-4.57-2.32c-10.37-3.52-21.2-7.6-30.43-11.52a27.12,27.12,0,0,1-9.73-2.87c-.54-.33-1.08-.65-1.64-1-1.29-.29-2.6-.55-3.92-.8s-2.63-.49-4-.63c-2.68-.32-5.38-.62-8.12-.9s-5.53-.39-8.33-.68-5.68-.43-8.58-.84a9.15,9.15,0,0,1-3.53-1.16,6.29,6.29,0,0,0-2.42-1l-4.6.24c-1.53.09-3.06.29-4.59.45a70.66,70.66,0,0,0-9.09,1.52,20.06,20.06,0,0,1-6.84-.42,31.2,31.2,0,0,0-6.92-.61l-1.86,0-1.86.12-3.73.23-3.72.26c-1.24.11-2.48.27-3.72.41-2.47.3-5,.55-7.42.92s-4.91.78-7.34,1.22c-9.72,1.76-19.16,4-28.44,5.83-2.84.67-6.94,2.2-9.75,2.75l-8.87,1.36c-2.77.46-5.39,1-8.06,1.4l-4,.67c-1.34.24-2.7.5-4.11.66-2.82.35-5.77.78-9,1.07q-3,.18-5.91.24c-1,0-1.95,0-2.92,0l-2.91-.11c-1.94-.08-3.87-.19-5.8-.31s-3.88-.35-5.82-.53c-7.79-.71-15.73-1.82-24.49-2.3-4.44.15-11.44-3-15.88-3-14.74-.58-26.38-2.91-39.64-4.74-2.94-.41-6-.21-8.94-.6-5-.35-9.51-1.12-14.09-1.76l-.24,2.07a7.77,7.77,0,0,0-.54.91c8.84.55,17.5,2.47,26.34,2.81,16.34,1,30.59,6.2,46.9,6.11a57,57,0,0,0,6.35-.71c1.87-.3,3.35-.47,4-.11a85.49,85.49,0,0,0,15.39,2.5l8.08.49c2.75.18,5.57.21,8.48.41,4.38.63,1.48,3.7,4.42,3.64a214.24,214.24,0,0,0,38.28-4.32c12.55-2.62,24.9-6.44,37.6-9.61q4.77-1.19,9.6-2.21c3.22-.7,6.49-1.19,9.75-1.74A176.22,176.22,0,0,1,686,133.32a162.39,162.39,0,0,1,39.26,3.16,26.09,26.09,0,0,0,8.45.21,29,29,0,0,1,9.59.73c2.84,1.17,5.49,3.06,6.94,3.37,1,.26,2.1.49,3.15.78l3.14.9c2.1.61,4.24,1.14,6.34,1.79,4.2,1.33,8.44,2.52,12.5,3.88s8.07,2.59,11.9,3.67c1.94.51,3.76,1.13,5.58,1.6s3.58.91,5.31,1.25C797.69,154.05,797.39,153.67,797.39,153.67Z"/><path class="cls-5" d="M617.41,157.44c6.54-1.33,13.14-2.88,19.9-4.41l2.85-.66C632.71,153.93,624.89,155.53,617.41,157.44Z"/><path class="cls-5" d="M651,150c3.57-.73,7.35-1.45,10.77-2l8.65-1.22a57.41,57.41,0,0,0-15.51,1.11A17.93,17.93,0,0,1,651,150Z"/><path class="cls-9" d="M766.37,158.18c9.78,2.94,19.6,6.2,29.81,9.85A93.72,93.72,0,0,0,766.37,158.18Z"/><path class="cls-10" d="M798.83,163.12C792,161,784.7,158.71,777,155.9c-7.79-2.65-16.11-5.61-25.28-8.55-9-3.09-20.62-4.6-32.57-5.24s-24.2-.53-35.23-1.5a23.13,23.13,0,0,0-5.69.33c-2.15.38-4.52.92-7,1.46a114.62,114.62,0,0,1-15.73,3.14c-1.93,1-3.68,2.36-4.47.94-13.65,3.33-28.32,7-42.41,8.84a318.81,318.81,0,0,1-89.59-1c-21.87-3-45.52-8.77-68.95-11.27.57,3.59,4.14,6.62,11.77,7.62,29.86,5.9,55.62,10,82.07,11.39,5,0,9.94-.14,14.85-.1,2.46,0,4.91-.06,7.35,0l3.66.05h3.64l-3.77.23-3.77.15c-2.52.11-5.05.3-7.59.4a288,288,0,0,0,36.8-1.76l-1.11,0c3-.35,6-.58,9.13-1.09,3.81-.77,7.76-1.31,11.68-2s7.83-1.4,11.64-2.15l11.07-2.44c.72-.2,4.44-1.27,8.56-2.26a57.3,57.3,0,0,1,11.07-1.88l2.91-.54a184,184,0,0,1,37.19-2.35c1.74-.08,3.48-.1,5.22-.13s3.5-.09,5.26.06,3.52.24,5.3.43c.88.1,1.77.17,2.66.32s1.78.32,2.67.5c4.89,1,11,2,16,2.87l6.21,1.17a11.13,11.13,0,0,1,2.56.65c3.48.77,7,1.4,10.48,2.28A93.43,93.43,0,0,1,784,162.26c2.68.79,5.38,1.62,8.16,2.4,5,1.53,7.55,1.43,8.74.35A23.93,23.93,0,0,1,798.83,163.12Z"/></g></g><g class="cls-1"><g class="cls-1"><path class="cls-2" d="M383.19,110c.68,1.67,4.68,1.14,8.74,1.3l-1.9-.44C387.78,110.46,385.49,110.25,383.19,110Z"/><path class="cls-2" d="M390,110.83l1.9.44q.76,0,1.5.06Z"/><path class="cls-2" d="M383.11,109.15a1.66,1.66,0,0,0,.08.82c2.3.28,4.59.49,6.84.86C387.69,110.24,385.36,109.77,383.11,109.15Z"/><path class="cls-2" d="M393.43,111.33l3.61.53A18.23,18.23,0,0,0,393.43,111.33Z"/><path class="cls-3" d="M487,129.06c-13.39-6.38-27-12.68-41.16-18a280.37,280.37,0,0,0-43.61-12.19L414,102.55c3.78,1.33,7.42,2.58,10.86,3.72,2.57,1,5.14,1.91,7.73,2.8l3.9,1.31,3.89,1.39c5.21,1.8,10.39,3.7,15.6,5.57C466.34,121.1,476.71,125,487,129.06Z"/><path class="cls-4" d="M357.85,93.26c-5-.45-9.93-.63-14.9-.93s-9.92-.39-14.88-.54q7.23.45,14.69.81C347.73,92.91,352.76,93,357.85,93.26Z"/><path class="cls-3" d="M485.47,128.84c-20.48-8.12-41.57-15.42-62.18-22.51-3.44-1.12-7.07-2.44-10.86-3.68s-7.74-2.43-11.77-3.58c-11.73-2.22-23.5-3.74-35.26-4.91s-23.51-1.7-35.23-2c-10.1.16-20-.06-29.6-.36-11.51,0-23,.15-34.39.24l-17.13.11c-5.71,0-11.37,0-17-.11a208.39,208.39,0,0,1-32.74-2.85,116.25,116.25,0,0,1-15.42-3.85,132.73,132.73,0,0,1-15-6c-10-4.6-19.81-10.32-30-16.22S118,51.2,107.05,45.85C85.18,35.06,62.39,26,39.16,17.58c-2.72-1-11.3-3.86-19.94-6.46S1.91,6.11-1,5.77l-9.82-2.32L-11,4c8.38,2.86,16.63,5.86,25.89,8.65,5.46,1.87,11.1,3.18,16.55,5.1C43.68,22.06,55.17,26.48,67,31.21S90.83,41,104.25,46.78A52.85,52.85,0,0,1,111,50.12c2.38,1.38,4.9,2.86,7.36,4.47,5,3.14,9.85,6.37,13.76,8.27,15.19,8.37,28.2,16.61,41.64,22.56a111.56,111.56,0,0,0,20.57,6.91,110,110,0,0,0,10.86,1.94q5.52.74,11.26,1c6.25.28,12.05.24,17.61.1s10.89-.37,16.25-.58c10.69-.4,21.43-.79,34.36-.69,5.74-.11,14.38-.82,20.14-.88,18.76.18,37.64.75,56.51,2.5,4.72.36,9.44,1,14.15,1.54,2.36.25,4.71.66,7.06,1l7,1.07,7,1.33c2.34.46,4.68.84,7,1.42,4.64,1.11,9.3,2,13.88,3.42,2.14.53,4.23,1.2,6.31,1.94s4.09,1.69,6.13,2.55,4.06,1.73,6.11,2.48a50.58,50.58,0,0,0,6.22,2.11c11.42,2.67,22.42,6.64,33.25,10.77,2.64,1.17,4.52,4,9.75,6.4,10,4.81,19.74,9,29.32,12.72s19,7,28.24,10l-3-1.53C521.28,146.21,503.5,137.41,485.47,128.84Z"/><path class="cls-3" d="M599.08,166.48l-4.62-.07c-1.52,0-3-.13-4.45-.22a170.78,170.78,0,0,0,29.38,3.18c2.56.08,5.19,0,7.72,0a29.17,29.17,0,0,0,6.86-1,17.24,17.24,0,0,0,5.75-2.62,7,7,0,0,0,1-.86,5.23,5.23,0,0,0,.4-.43l.3-.43a1.25,1.25,0,0,0,.23-.42,3.52,3.52,0,0,0,.18-.4c0-.27.18-.5.13-.78a4.38,4.38,0,0,1-1.85,2.46,14.86,14.86,0,0,1-4.34,2.08,28.54,28.54,0,0,1-5.4,1.08c-.46.06-.93.09-1.39.11s-.93.05-1.39.05h-1.49l-1.6,0Q611.69,167.93,599.08,166.48Z"/><path class="cls-3" d="M568.44,161.52l.56.22c-2.5-.55-5-1.24-7.43-1.86s-4.92-1.34-7.35-2.1c-4.87-1.44-9.67-3.07-14.41-4.79l3,1.53L559.28,160c1.45.51,3,1,4.47,1.44,2.16.38,4.43.69,6.75,1l1.09.43c4.57,1.78,11,2.94,18.42,3.41-1.56-.28-3.11-.64-4.6-1Z"/><path class="cls-5" d="M556.79,175.65c-9.87-3.45-17.74-5.6-25.57-8a146.33,146.33,0,0,1-24.69-9.6c-13.35-6.63-26.15-12.63-39-18,14.28,6.74,28.33,13.91,42.92,20.38a271.73,271.73,0,0,0,45.57,16.09C555.66,176.15,555.7,175.8,556.79,175.65Z"/><path class="cls-6" d="M641.51,172.85a25.86,25.86,0,0,1-10.33,4,32.44,32.44,0,0,1-3.26.37l-.87.05h-.81l-1.65,0c-1.13,0-2.29,0-3.49,0l-3.75-.16A189.33,189.33,0,0,1,593.24,174c-7.49-1.39-14.52-3-21.59-4.37-4.92-1.08-9.93-2.17-15-3.44-2.54-.59-5.06-1.29-7.61-1.94s-5.1-1.37-7.64-2.15c-10.21-3-20.45-6.57-30.49-10.58a604.25,604.25,0,0,1-57.14-26.76,162.06,162.06,0,0,0-26.8-11l-3.58-1.15-3.65-1-7.38-1.91c-2.5-.55-5-1-7.55-1.56l-3.81-.75c-1.27-.26-2.56-.42-3.85-.63l-7.76-1.18c-2.6-.36-5.23-.62-7.85-.92-5.25-.67-10.56-1-15.88-1.42-10.66-.64-21.41-1.12-32.16-1.32-8.62-.25-20.08,1-28.68,1-14.32.12-27.94.42-41.21.63s-26.18.46-39.14,0a93.5,93.5,0,0,1-21.7-3.23l-9.65-2.56c-3.66-1-8-2-13.38-3.7-2.71-.9-7.58-4-10.14-5.15-15-6.22-29.26-14.91-43.9-23.16S95.82,50.12,80.34,43.3c-31-13.58-63-24.68-94.22-35.69a4.1,4.1,0,0,0-1.19,3.63C6.58,18.28,28.38,26,49.43,34.5a622.21,622.21,0,0,1,60,27.79C122,69,134.05,76.64,146.69,83.67c6.32,3.5,12.76,6.86,19.45,9.77a135.14,135.14,0,0,0,20.76,7.2c14.26,3.63,28.89,4.67,43.32,5,7.23.18,14.43.17,21.61.17l21.53,0c26.91,0,55.78,0,83,1.53a1.49,1.49,0,0,1-.14-.81c2.29.47,4.64.86,7,1.2,1.16,0,2.3.15,3.44.25a17.73,17.73,0,0,1,3.64.29l-3.64-.29-1.51,0c5.14.82,10.46,1.24,15.68,1.87l7.81.78,7.54.87c1.23.14,2.46.26,3.65.42l3.5.53c2.29.35,4.5.7,6.58,1.06a86.93,86.93,0,0,1,10.71,2.73l1.9.65,1.89.71,3.82,1.42c2.56.94,5.18,1.8,7.78,2.84l3.93,1.49,4,1.58c2.65,1,5.3,2.15,8,3.22,10.71,4.4,21.63,9.21,32.46,13.94s21.58,9.4,31.89,13.59,20.21,7.89,29.17,11.06a219.31,219.31,0,0,0,52.62,11,192.08,192.08,0,0,0,24,.45l2.86-.16,1.42-.08.71,0,.78-.07a36.41,36.41,0,0,0,6-1,32.15,32.15,0,0,0,5.71-2,21.1,21.1,0,0,0,5.21-3.35A15.69,15.69,0,0,1,641.51,172.85Z"/><path class="cls-7" d="M637,168.61c-.53,0-1,0-1.53,0s-.9,0-1.3-.07a28.06,28.06,0,0,1-4.24,1.37,36,36,0,0,1-4.82.7c-3.49.34-7.13.55-10.89.64a184.79,184.79,0,0,1-23.65-1,217.16,217.16,0,0,1-24.71-4.09,242.58,242.58,0,0,1-24.11-6.84,37,37,0,0,1-5.52-2.6l-3.52-1.89c-1.22-.68-2.49-1.36-3.76-2-3.28-1.38-6.25-2.57-9.09-3.49s-5.5-1.75-8.07-2.55A83.61,83.61,0,0,1,496.75,141c-11.16-5.74-22.35-11.48-33.83-16.73-5.76-2.59-11.56-5.12-17.49-7.37-2.95-1.18-6-2.2-8.95-3.27s-6.07-1.91-9.11-2.85a275.77,275.77,0,0,0-37.2-8.15c-12.56-1.82-25.19-2.94-37.81-3.57-25.26-1.16-50.44-.43-75.52.38-12.55.4-25.08.8-37.6,1s-25-.1-37.27-1.8c-2.8-.44-2.68-1.19-2.89-2.07s-.75-1.88-4.74-3A136.78,136.78,0,0,1,165,83.07a190.65,190.65,0,0,1-25.72-15.38c-2.18-1.94-10.53-4.74-18.52-8.35-14.49-6.79-28.08-13.57-41.92-19.85a374.75,374.75,0,0,0-43-17c-16.38-4.93-32.29-11-48.6-15.92a6.91,6.91,0,0,0-1.13,1c31.24,11,63.22,22.11,94.22,35.69,15.48,6.82,30.72,14.24,45.39,22.52S154.58,82.76,169.63,89c2.56,1.16,7.43,4.25,10.14,5.15l10.52,3.14,4.34,1.33,4.29,1.25a102.16,102.16,0,0,0,25.58,3.77c13.19.44,26,.15,39.16,0s26.65-.51,41.19-.63c8.6,0,20.06-1.26,28.68-1,10.75.2,21.5.68,32.16,1.32,5.32.45,10.63.75,15.88,1.42,2.62.3,5.25.56,7.85.92l7.76,1.18c1.29.21,2.58.37,3.85.63l3.81.75c2.53.52,5.05,1,7.55,1.56l7.38,1.91,3.65,1,3.58,1.15a162.06,162.06,0,0,1,26.8,11,604.25,604.25,0,0,0,57.14,26.76c10,4,20.28,7.57,30.49,10.58,2.54.78,5.11,1.43,7.64,2.15s5.07,1.35,7.61,1.94c5,1.27,10.05,2.36,15,3.44,7.07,1.4,14.1,3,21.59,4.37a189.33,189.33,0,0,0,24.11,3.08l3.75.16c1.2,0,2.36,0,3.49,0l1.65,0h.81l.87-.05a32.44,32.44,0,0,0,3.26-.37,25.86,25.86,0,0,0,10.33-4,12.89,12.89,0,0,1-7.66-.13c-1.63-.67-2.4-1.61-2.55-2.65A28.69,28.69,0,0,0,637,168.61Z"/><path class="cls-8" d="M648.28,160.7c-.35.61-.69,1.17-1,1.69s-.82,1-1.18,1.4-.88.74-1.32,1a10.49,10.49,0,0,1-1.32.69,18.81,18.81,0,0,1-4.45,1.11c-1.12.18-1.74.32-1.47.46a7.47,7.47,0,0,0,3.77-.26,18.29,18.29,0,0,1-5.07,2.53c.34,1,1.23,1.8,3,2.15a8.74,8.74,0,0,0,3.26-.11,10.69,10.69,0,0,0,4.47-2.11l.67-1.07c.18-.39.34-.78.5-1.15a9.66,9.66,0,0,0,.59-2.29,13.05,13.05,0,0,0,0-2.16C648.59,161.92,648.44,161.29,648.28,160.7Z"/><path class="cls-8" d="M632.29,168.35a31.14,31.14,0,0,1-4.19.42h-1c-.34,0-.78,0-1.16,0l-2.38,0c-2.53.17-5.08.18-7.65.24s-5.16,0-7.75-.13c-5.18-.16-10.37-.63-15.48-1.26s-10.12-1.52-15-2.54-9.52-2.25-13.92-3.64c-7.3-1.23-13.61-3-18-5.28l-3-1.59c-9.27-3.08-18.66-6.32-28.24-10s-19.33-7.91-29.32-12.72c-5.23-2.38-7.11-5.23-9.75-6.4-10.83-4.13-21.83-8.1-33.25-10.77a50.58,50.58,0,0,1-6.22-2.11c-2.05-.75-4.08-1.61-6.11-2.48s-4.05-1.82-6.13-2.55-4.17-1.41-6.31-1.94c-4.58-1.37-9.24-2.31-13.88-3.42-2.32-.58-4.66-1-7-1.42l-7-1.33-7-1.07c-2.35-.34-4.7-.75-7.06-1-4.71-.53-9.43-1.18-14.15-1.54-18.87-1.75-37.75-2.32-56.51-2.5-5.76.06-14.4.77-20.14.88-12.93-.1-23.67.29-34.36.69-5.36.21-10.7.44-16.25.58s-11.36.18-17.61-.1q-5.74-.27-11.26-1a110,110,0,0,1-10.86-1.94,111.56,111.56,0,0,1-20.57-6.91c-13.44-6-26.45-14.19-41.64-22.56-3.91-1.9-8.79-5.13-13.76-8.27-2.46-1.61-5-3.09-7.36-4.47a52.85,52.85,0,0,0-6.72-3.34C90.83,41,78.74,35.94,67,31.21S43.68,22.06,31.43,17.73C26,15.81,20.34,14.5,14.88,12.63,5.62,9.84-2.63,6.84-11,4l-.65,2a10.16,10.16,0,0,0-1.09.67c16.31,4.87,32.22,11,48.6,15.92a374.75,374.75,0,0,1,43,17c13.84,6.28,27.43,13.06,41.92,19.85,8,3.61,16.34,6.41,18.52,8.35A190.65,190.65,0,0,0,165,83.07a136.78,136.78,0,0,0,29.35,10.54c4,1.1,4.54,2.09,4.74,3s.09,1.63,2.89,2.07c12.29,1.7,24.78,2,37.27,1.8s25.05-.58,37.6-1c25.08-.81,50.26-1.54,75.52-.38,12.62.63,25.25,1.75,37.81,3.57a275.77,275.77,0,0,1,37.2,8.15c3,.94,6.09,1.85,9.11,2.85s6,2.09,8.95,3.27c5.93,2.25,11.73,4.78,17.49,7.37,11.48,5.25,22.67,11,33.83,16.73a83.61,83.61,0,0,0,15.07,5.72c2.57.8,5.25,1.56,8.07,2.55s5.81,2.11,9.09,3.49c1.27.64,2.54,1.32,3.76,2l3.52,1.89a37,37,0,0,0,5.52,2.6,242.58,242.58,0,0,0,24.11,6.84,217.16,217.16,0,0,0,24.71,4.09,184.79,184.79,0,0,0,23.65,1c3.76-.09,7.4-.3,10.89-.64a36,36,0,0,0,4.82-.7,28.06,28.06,0,0,0,4.24-1.37C633,168.45,632.29,168.35,632.29,168.35Z"/><path class="cls-5" d="M289.05,109.31c12.53-.15,25.37-.23,38.61.13.83,0,2.82.08,5.61.17C318.69,109,303.53,108.74,289.05,109.31Z"/><path class="cls-5" d="M354.69,110.75c3.52.3,7.16.55,10.76.91L376,112.8l9.45,1.32c1.44.18,2.8.41,4.05.64l3.46.6a159.25,159.25,0,0,0-29.87-5.25A58.66,58.66,0,0,1,354.69,110.75Z"/><path class="cls-9" d="M578.4,181c2.67.43,5.36.73,8.05,1.08s5.4.6,8.12.79c5.43.46,10.9.67,16.39.74h4.13l4.13-.09q2.07,0,4.14-.15l2.08-.1,1-.05.52,0,.62,0a44.6,44.6,0,0,0,10-1.85,30.89,30.89,0,0,0,10.16-5.13,31.16,31.16,0,0,1-10.33,4.62,47.09,47.09,0,0,1-9.94,1.47l-4.22.11c-1.38,0-2.75.06-4.13.07l-4.11.05H611c-5.46-.05-10.91-.14-16.34-.41-2.71-.09-5.42-.29-8.13-.44S581.09,181.3,578.4,181Z"/><path class="cls-10" d="M644.79,171.52a21.1,21.1,0,0,1-5.21,3.35,32.15,32.15,0,0,1-5.71,2,36.41,36.41,0,0,1-6,1L627,178l-.71,0-1.42.08-2.86.16a192.08,192.08,0,0,1-24-.45,219.31,219.31,0,0,1-52.62-11c-9-3.17-18.87-6.84-29.17-11.06s-21.06-8.84-31.89-13.59-21.75-9.54-32.46-13.94c-2.69-1.07-5.34-2.21-8-3.22l-4-1.58L436.06,122c-2.6-1-5.22-1.9-7.78-2.84l-3.82-1.42-1.89-.71-1.9-.65A86.93,86.93,0,0,0,410,113.6c-2.08-.36-4.29-.71-6.58-1.06l-3.5-.53c-1.19-.16-2.42-.28-3.65-.42l-7.54-.87-7.81-.78c-5.22-.63-10.54-1-15.68-1.87-4.08.23-8.05,1-8.83-.67-27.23-1.53-56.1-1.51-83-1.53l-21.53,0c-7.18,0-14.38,0-21.61-.17-14.43-.36-29.06-1.4-43.32-5a135.14,135.14,0,0,1-20.76-7.2c-6.69-2.91-13.13-6.27-19.45-9.77-12.64-7-24.7-14.66-37.27-21.38a622.21,622.21,0,0,0-60-27.79C28.38,26,6.58,18.28-15.07,11.24-14.36,15.16-7.93,20,6.2,24.79,33.8,35.12,59,44.84,82.49,55.51c11.73,5.33,23,10.89,33.91,16.85s21.68,12.49,33.13,18.42a214.78,214.78,0,0,0,27.1,11A170.81,170.81,0,0,0,205,108a158.54,158.54,0,0,1-29.51-5.74,130.88,130.88,0,0,0,17.55,4.58,175,175,0,0,0,17.84,2.35c11.92,1,23.82,1,35.73.8l-2.1,0,17.27-.21c14.55-.57,29.78-.55,44.46-.37l9.49.09,12.07.25c.72,0,2.92,0,6,.06s6.95.07,11,.29,8.38.39,12.2.78a90.67,90.67,0,0,1,9.51,1.22l5.75.6a312.48,312.48,0,0,1,36.78,6.42c2.94.72,5.83,1.56,8.73,2.33s5.73,1.68,8.55,2.58,5.64,1.76,8.38,2.82c1.38.51,2.76,1,4.13,1.52l4.1,1.61A281.88,281.88,0,0,1,481.5,146.8c8.84,4.71,20.4,10.23,30,14.35,2.39,1,4.68,2,6.75,2.82s3.91,1.59,5.49,2.18c3.13,1.21,5.06,2,5.16,2.07,7.09,2.57,14.38,4.84,21.75,6.74A436.72,436.72,0,0,0,616,182.21c2.9-.12,5.8-.24,8.71-.48l2.18-.15c.82-.08,1.73-.15,2.58-.27a42.22,42.22,0,0,0,5.08-1C640.65,178.72,645,176,647.4,173a11.28,11.28,0,0,0,2.26-4,4.09,4.09,0,0,0,.12-2.49A12.25,12.25,0,0,1,644.79,171.52Z"/></g></g><g class="cls-1"><g class="cls-1"><path class="cls-2" d="M685.17,174.42c.73,1.49,3,.22,5.28-.69l-1.18,0C687.91,174,686.55,174.23,685.17,174.42Z"/><path class="cls-2" d="M689.27,173.77l1.18,0,.86-.3Z"/><path class="cls-2" d="M685,173.64a2.5,2.5,0,0,0,.22.78c1.38-.19,2.74-.41,4.1-.65A32.61,32.61,0,0,1,685,173.64Z"/><path class="cls-2" d="M691.31,173.43c.72-.13,1.46-.24,2.16-.38A6.79,6.79,0,0,0,691.31,173.43Z"/><path class="cls-3" d="M742.14,148.55c-8.3,2.31-16.51,4.5-24.67,6.35s-16.32,3.3-24.54,4.43l3.49.06h3.4c2.25,0,4.4-.1,6.44-.22C718.53,158.47,730.32,153.41,742.14,148.55Z"/><path class="cls-4" d="M668.22,161.93c-5.56.37-11.14.58-16.74.72A96.56,96.56,0,0,0,668.22,161.93Z"/><path class="cls-3" d="M741.47,149.19c-11.82,4.85-23.63,9.89-35.93,10.54-2,.14-4.2.21-6.45.21s-4.56,0-6.9-.06a357.36,357.36,0,0,1-39.51,3,99.26,99.26,0,0,1-16.8,0,361.66,361.66,0,0,1-39-2.49A186,186,0,0,1,578,157c-3.08-.74-6.13-1.55-9.14-2.54-1.51-.48-3-.91-4.54-1.43l-4.49-1.65c-.75-.28-1.5-.54-2.24-.84l-2.22-.93-4.45-1.87-4.39-2.07-2.2-1-2.18-1.13-4.35-2.26c-1.44-.79-2.86-1.63-4.3-2.43-2.89-1.58-5.7-3.4-8.55-5.12a382.65,382.65,0,0,1-33.39-24c-1.29-1-5.45-4.1-9.68-7.16s-8.55-6-10.23-6.63l-5.09-3.07-.36.43c3.94,3.38,7.72,6.83,12.27,10.14,2.59,2.11,5.54,3.78,8.14,5.84,11.65,9.34,21.86,17.88,36.26,25.63,2.23,1,4.75,3.1,7.32,5.14,1.3,1,2.6,2,3.86,2.85.64.43,1.26.83,1.86,1.18a16.16,16.16,0,0,0,1.79.81c8.74,4.23,16.63,8.22,24.68,11.38,1,.44,2,.81,3,1.16l3,1.09c2,.74,4.06,1.38,6.13,2a91.81,91.81,0,0,0,12.84,2.62c7.27.87,13.41,1,19.55,1.19s12.31.28,19.75.73c3.32.07,8.28-.49,11.58-.52A410.51,410.51,0,0,0,702.43,161c4.82-1,10.21.38,14.91-1.44,6.15-2.77,12.35-5.18,18.56-7.68,1.59-.48,3.72.78,6.92-.2,12.49-3.39,23.41-8.74,34.9-11.93q-1,0-2.07.06C764,142.74,752.64,146.09,741.47,149.19Z"/><path class="cls-3" d="M793.43,135.65l.38,0c-6.11,1.24-12.18,2.61-18.16,4.13q1,0,2.07-.06a76.29,76.29,0,0,1,10.36-2.18l2.85-.36c1.25-.46,2.56-.95,3.89-1.49l.73,0c3.05.15,6.89-.75,11.18-2.1l-2.86.25A75.33,75.33,0,0,0,793.43,135.65Z"/><path class="cls-5" d="M792.77,152.71a49.67,49.67,0,0,0-14.32,3.65,81.93,81.93,0,0,1-14.24,4.55A222.66,222.66,0,0,0,740,168c18.5-4.74,35.67-9.89,52.78-14.22C792.43,153.58,792.32,153.25,792.77,152.71Z"/><path class="cls-6" d="M837.94,136.4a47.3,47.3,0,0,1-13.33,2.93c-10,1-18.53.88-26.73,2.75-11.54,2.32-23.35,6.83-35.18,11.17s-23.88,8.4-35.87,9.48c-11.05,1.19-22.54,3.4-34.55,5.43s-24.51,3.83-37.13,4.38c-5,.25-11.74,1.64-16.81,1.65-16.86,0-32.08-.52-47.18-2.58A44.67,44.67,0,0,1,578.73,168c-1.68-.7-3.39-1.41-5.5-2.13-1.06-.36-2.2-.75-3.5-1.11s-2.71-.81-4.33-1.22a16.56,16.56,0,0,1-3-1.54,19.55,19.55,0,0,0-2.93-1.68A167.65,167.65,0,0,1,533,148.81a235.61,235.61,0,0,1-24.83-15.6c-16-11.38-30.91-24.32-45.43-37.22a6.7,6.7,0,0,0-2.45,2.94c10.35,8.46,20.51,17.43,30.79,26a297.49,297.49,0,0,0,31.46,23.27,180.11,180.11,0,0,0,22.42,12.26,171.21,171.21,0,0,0,24.17,8.65c16.61,4.45,33.68,6,50.6,7.26,15.86,1.07,33.09,1.35,49.37-.23a2.14,2.14,0,0,1-.18-.79,35.79,35.79,0,0,0,4.3.34l2.06-.25a6.9,6.9,0,0,1,2.16-.28c-.71.1-1.44.2-2.16.28l-.89.26A82.41,82.41,0,0,0,693,173c5.82-1.42,10.94-2.87,14.67-3.12a108.68,108.68,0,0,0,20-3.31c6.78-1.7,13.54-3.89,20.13-6.15,13.18-4.52,25.77-9.19,36.45-11.12,21.56-4.53,39.83-7.87,55.54-12.5C839.1,136.68,838.49,136.55,837.94,136.4Z"/><path class="cls-7" d="M835.81,131c-.72-.28-1.38-.51-1.92-.69a255,255,0,0,1-25.73,7.1c-9.45,2.23-19.41,4.51-28.82,6.95-1.62.45-5.2.22-8.62.61-8.29,1.85-12.19,6.29-18.79,7.73-14.41,3.26-28.62,6.94-42.89,9.67a429.94,429.94,0,0,1-43.23,6Q644,170.24,622,170.1c-14.63-.09-29.27-.9-43.56-3.78-3.24-.71.61-2.93-4-4.65-6.22-1.85-12-3.75-17.45-5.92-2.73-1.1-5.34-2.38-7.91-3.64a82.54,82.54,0,0,1-7.32-4.51c-1.15-1.31-6.36-1.79-10.94-3.76-8.31-3.67-15.5-8.65-22.39-14s-13.55-11-21.11-16.19c-8.31-5.45-15.46-12.41-23.44-18.41a11,11,0,0,0-1.17.71c14.52,12.9,29.42,25.84,45.43,37.22A235.61,235.61,0,0,0,533,148.81a167.65,167.65,0,0,0,26.49,11.53,19.55,19.55,0,0,1,2.93,1.68,16.56,16.56,0,0,0,3,1.54,66.47,66.47,0,0,1,11.08,4,52,52,0,0,0,14.68,4c15.38,2.08,30.07,2.59,47.18,2.58,5.07,0,11.78-1.4,16.81-1.65,12.62-.55,25.13-2.4,37.13-4.38s23.5-4.24,34.55-5.43c12-1.08,24-5.15,35.87-9.48s23.64-8.85,35.18-11.17c8.2-1.87,16.77-1.76,26.73-2.75a47.3,47.3,0,0,0,13.33-2.93c-3.84-1-5.71-2.87-6-4.93Z"/><path class="cls-8" d="M832.58,129.84c-1.92.2-3.82.39-5.72.62-12,2.86-24.8,5.24-35.93,6.74-4.24,1.53-8,2.58-11.1,2.55-.7,0-1.4,0-2.11,0-11.49,3.19-22.41,8.54-34.9,11.93-3.2,1-5.33-.28-6.92.2-6.21,2.5-12.41,4.91-18.56,7.68-4.7,1.82-10.09.47-14.91,1.44a410.51,410.51,0,0,1-64.14,3.46c-3.3,0-8.26.59-11.58.52-7.44-.45-13.6-.59-19.75-.73s-12.28-.32-19.55-1.19a91.81,91.81,0,0,1-12.84-2.62c-2.07-.58-4.12-1.22-6.13-2l-3-1.09c-1-.35-2-.72-3-1.16-8-3.16-15.94-7.15-24.68-11.38a16.16,16.16,0,0,1-1.79-.81c-.6-.35-1.22-.75-1.86-1.18C532.8,142,531.5,141,530.2,140c-2.57-2-5.09-4.13-7.32-5.14-14.4-7.75-24.61-16.29-36.26-25.63-2.6-2.06-5.55-3.73-8.14-5.84-4.55-3.31-8.33-6.76-12.27-10.14l-1.33,1.6a10,10,0,0,0-1,.43c8,6,15.13,13,23.44,18.41,7.56,5.23,14.22,10.86,21.11,16.19s14.08,10.29,22.39,14c4.58,2,9.79,2.45,10.94,3.76a82.54,82.54,0,0,0,7.32,4.51c2.57,1.26,5.18,2.54,7.91,3.64,5.47,2.17,11.23,4.07,17.45,5.92,4.62,1.72.77,3.94,4,4.65,14.29,2.88,28.93,3.69,43.56,3.78s29.27-.5,43.8-1.78a429.94,429.94,0,0,0,43.23-6c14.27-2.73,28.48-6.41,42.89-9.67,6.6-1.44,10.5-5.88,18.79-7.73,3.42-.39,7-.16,8.62-.61,9.41-2.44,19.37-4.72,28.82-6.95a255,255,0,0,0,25.73-7.1C833.09,130,832.58,129.84,832.58,129.84Z"/><path class="cls-5" d="M628.89,180.29c7.48.14,15.18.16,23.18,0l3.39-.1C646.63,180.32,637.54,180.09,628.89,180.29Z"/><path class="cls-5" d="M668.47,179.63c8.6-.48,18.34-1.48,23.54-2.21a157.9,157.9,0,0,0-18.6.57A21,21,0,0,1,668.47,179.63Z"/><path class="cls-10" d="M839.73,136.79c-15.71,4.63-34,8-55.54,12.5-10.68,1.93-23.27,6.6-36.45,11.12-6.59,2.26-13.35,4.45-20.13,6.15a108.68,108.68,0,0,1-20,3.31c-3.73.25-8.85,1.7-14.67,3.12a82.41,82.41,0,0,1-18.59,2.69c-2.36.77-4.63,2-5.29.44-16.28,1.58-33.51,1.3-49.37.23-16.92-1.21-34-2.81-50.6-7.26a171.21,171.21,0,0,1-24.17-8.65,180.11,180.11,0,0,1-22.42-12.26,297.49,297.49,0,0,1-31.46-23.27c-10.28-8.55-20.44-17.52-30.79-26-1.37,3.39.37,8.26,7.17,13.89,6.42,5.91,12.73,11.48,19.08,16.68S499.2,139.56,505.68,144a225.68,225.68,0,0,0,19.77,12.31c3.32,1.93,6.81,3.58,10.21,5.33l5.25,2.38c.87.4,1.74.8,2.62,1.18l2.68,1.07,4.1,1.4c1.35.49,2.76.85,4.13,1.28l4.11,1.28c1.36.42,2.76.75,4.13,1.14,5.48,1.6,11,2.89,16.44,4.13-5.69-.95-11.46-2.08-17.18-3.51,13.46,4.1,27.39,6.11,41.62,7.19l-1.25-.17c3.41.28,6.83.52,10.32.72,8.71.11,17.74.63,26.56.86,3.08,0,7.81,0,13,0l10.27-.68c2.48-.14,5.08-.34,7.42-.42a50.84,50.84,0,0,1,5.88,0l3.53-.33a359.33,359.33,0,0,0,45-6.65c8.14-2.41,16.19-4.94,24.69-6.77,5.86-1.18,13-3.25,18.69-4.93l7.13-2.1a19.86,19.86,0,0,1,3-.76l12-3.52a142.75,142.75,0,0,1,35-9.86l9.44-2.62c5.77-1.59,8.18-3.17,8.64-4.73C841.72,137.09,840.68,137,839.73,136.79Z"/></g></g><g class="cls-1"><g class="cls-1"><path class="cls-2" d="M246.38,86.89c.41,1.63,3.23,1.06,6.15,1.06l-1.34-.38C249.6,87.32,248,87.1,246.38,86.89Z"/><path class="cls-2" d="M251.19,87.57l1.34.38c.36,0,.72,0,1.07,0Z"/><path class="cls-2" d="M246.36,86.08a2.38,2.38,0,0,0,0,.81c1.62.21,3.22.43,4.81.68C249.55,87.11,247.94,86.62,246.36,86.08Z"/><path class="cls-2" d="M253.6,88c.84.14,1.7.32,2.54.47A8.19,8.19,0,0,0,253.6,88Z"/><path class="cls-3" d="M322,98.17c-9.8-4.59-19.74-8.85-29.85-12.66a282.91,282.91,0,0,0-31.08-9.92c5.82,2.17,11.22,4.6,16,6.65,7.18,3.18,14.6,5.78,22.15,8.28S314.42,95.47,322,98.17Z"/><path class="cls-4" d="M227.41,71.73a176.25,176.25,0,0,0-22.21,2.45C212.11,73.41,219.51,72.4,227.41,71.73Z"/><path class="cls-3" d="M320.86,98.13c-7.57-2.68-15.23-5.08-22.76-7.58s-15-5-22.15-8.21c-4.81-2-10.22-4.44-16-6.59A129.91,129.91,0,0,0,233.32,72a109.9,109.9,0,0,0-13.63.5c-4.44.42-8.75,1-12.94,1.69a122.41,122.41,0,0,1-20.29,2.87c-15,1.44-30.42-.34-45.9-3.72-7.75-1.7-15.53-3.77-23.38-6.06S101.52,62.61,94,59.89a176.1,176.1,0,0,1-21.79-9.43A216.26,216.26,0,0,1,51.49,37.75L8.48,8.53C5.07,6.21-13.27-5.36-17.37-6.67L-23.86-10l-.32.47c5.24,3.62,10.32,7.34,16.26,11C-4.5,3.77-.75,5.58,2.67,7.9,18,18.31,31.4,28.11,49.13,38.64c2.71,1.46,5.82,4.09,8.95,6.61s6.3,5,9,6.1A280,280,0,0,0,97.54,65c5.06,1.93,10.15,3.71,15.36,5.34s10.48,3.13,15.92,4.33a218.13,218.13,0,0,0,23.76,3.71c7.39.78,14.7,1.26,23.43,1.5,3.9-.07,9.56-1.07,13.42-1.6,6.32-.67,12.86-1.77,19.65-2.72a139.87,139.87,0,0,1,21.18-1.68,111.27,111.27,0,0,1,21.32,2.35,170,170,0,0,1,20.14,5.5,47.31,47.31,0,0,1,8.71,3.87,40.25,40.25,0,0,0,8.71,3.63A195.09,195.09,0,0,1,313.44,96c1.93.84,3.15,3.31,7,5,14.5,6.91,28.5,12,41.34,18.77-.64-.53-1.27-1.07-1.93-1.58q-9.62-5.34-19.33-10.37C334,104.43,327.45,101.2,320.86,98.13Z"/><path class="cls-3" d="M399,140.18c-2.13-.79-4.19-1.63-6.14-2.48a136.14,136.14,0,0,0,18.49,10.6,78,78,0,0,0,20.72,6.53C420.47,151.72,409.63,146.23,399,140.18Z"/><path class="cls-3" d="M379.11,129.05l.34.3q-9.79-5.73-19.64-11.22c.66.51,1.29,1.05,1.93,1.58a119.39,119.39,0,0,1,11.07,6.57l2.88,1.95c1.48.65,3.05,1.28,4.65,1.93l.65.59c2.72,2.45,6.94,4.76,11.88,6.95L390,135.75A126.06,126.06,0,0,0,379.11,129.05Z"/><path class="cls-5" d="M366.17,140.68c-11.75-8.41-20.39-9.5-32.6-16.86A185.93,185.93,0,0,0,306.2,111c20.49,9.42,39.63,20,59.17,30.47C365.22,141,365.35,140.71,366.17,140.68Z"/><path class="cls-6" d="M423.3,160.1c-4.34-.41-9.73-1.87-16.39-5.32-11.21-5.89-19.18-12.74-28.24-17.67-12.5-7.24-26.66-13.59-40.78-19.81-7.07-3.1-14.11-6.2-21-9.37s-13.56-6.46-19.91-10a136.89,136.89,0,0,0-19.09-8.49,146.68,146.68,0,0,0-21.23-6A115,115,0,0,0,234,81.08a140,140,0,0,0-23.06,2.33c-6.11,1-14,3.73-20.21,4.52A132.48,132.48,0,0,1,175.47,89c-5,.07-9.85-.2-14.64-.61A209.2,209.2,0,0,1,133,83.78,70.1,70.1,0,0,1,118,78.51a94.77,94.77,0,0,0-16.29-5.78c-2-.6-5.5-3-7.43-3.69A166.14,166.14,0,0,1,61.83,54.93C51.54,49,41.69,41.86,31.67,35,11.71,21.26-8.14,7.3-27.56-6.54a5.45,5.45,0,0,0-2.13,3.17C-16,5.69-2.5,15.35,10.76,24.94L30.4,39.2c6.48,4.67,12.8,9.3,19.19,13.62,4.27,3,8.66,5.8,13.23,8.39a146.94,146.94,0,0,0,14.11,7,255.14,255.14,0,0,0,29.5,10.39c9.95,2.91,20,5.69,30.17,7.92a218,218,0,0,0,31.12,4.76,129.52,129.52,0,0,0,15.17.22A145.64,145.64,0,0,0,198.27,90c10.13-1.49,19.95-3.46,29.39-4a2.14,2.14,0,0,1-.18-.79c1.64.22,3.28.43,5,.6h2.4a8.93,8.93,0,0,1,2.54.05l-2.54-.05a9.52,9.52,0,0,0-1.05.16c7.18.72,14.8,1.31,21.8,2.29s13.26,2.26,17.35,4c7.05,3.13,14.62,6.13,22.38,9.21S311,107.71,318.78,111c15.57,6.5,30.49,13.46,41.86,20.52q8.76,5.22,16.95,9.95c5.47,3.14,10.79,6.16,16.11,8.85,10.58,5.41,21.23,9.45,31.53,11C424.53,160.91,423.88,160.5,423.3,160.1Z"/><path class="cls-7" d="M423.38,154.17c-.65-.62-1.24-1.16-1.72-1.58-9-1.38-19.46-5.65-30-11.07s-21.42-11.64-31.85-17.33c-1.82-1-4.93-4-8.35-6.39-9-5.26-15.91-5.21-23.13-9.25a306.67,306.67,0,0,0-49.87-22,180.66,180.66,0,0,0-26.65-7A118.73,118.73,0,0,0,238,77.87a96.89,96.89,0,0,0-14.05.27c-9.3.84-18.22,2.84-27,4.42a134.85,134.85,0,0,1-26.38,2.5c-17.74-.11-35.47-3.65-52.82-8.29-4-1.11.8-2.93-4.94-5.19-7.78-2.55-15-4.81-21.86-7.43A92.66,92.66,0,0,1,72,54.64c-.74-.73-2.62-1.32-5-2.12a65.58,65.58,0,0,1-8-3.09,130.93,130.93,0,0,1-14.12-8.52C40.37,37.84,36,34.65,31.6,31.45,22.84,25.06,14.12,18.6,4.38,12.74-6.25,6.62-15.95-.88-26.38-7.31a8.27,8.27,0,0,0-1.18.77C-8.14,7.3,11.71,21.26,31.67,35c10,6.83,19.87,13.93,30.16,19.9A166.14,166.14,0,0,0,94.3,69c1.93.67,5.46,3.09,7.43,3.69a77.07,77.07,0,0,1,13.57,5.08,85.79,85.79,0,0,0,17.65,6,207.69,207.69,0,0,0,27.89,4.6,141.73,141.73,0,0,0,14.54.61,132.84,132.84,0,0,0,15.3-1.06c6.2-.79,14.1-3.52,20.21-4.52A140,140,0,0,1,234,81.08a115,115,0,0,1,22.73,2.35,146.68,146.68,0,0,1,21.23,6A136.89,136.89,0,0,1,297,97.92c6.35,3.55,13,6.84,19.91,10s13.91,6.27,21,9.37c14.12,6.22,28.28,12.57,40.78,19.81,9.06,4.93,17,11.78,28.24,17.67,6.66,3.45,12,4.91,16.39,5.32-4-2.85-5-5.54-4.27-7.48C420.09,153,421.77,153.63,423.38,154.17Z"/><path class="cls-8" d="M432.44,161.38a35.68,35.68,0,0,0-6.67-7.52c-1.57-1.27-2-1,1.13,1.84-1.62-.5-3.33-1-4.41-1.4-.66,2,.43,4.63,4.57,7.32A26.34,26.34,0,0,0,432.44,161.38Z"/><path class="cls-8" d="M420.49,151.54q-3.12-1.26-6.16-2.68c-13.65-4.69-27.27-13.16-38.64-20.63-5-2.19-9.25-4.44-12-6.84q-.95-.86-1.92-1.68c-12.84-6.77-26.84-11.86-41.34-18.77-3.81-1.67-5-4.14-7-5a195.09,195.09,0,0,0-24.3-6.74,40.25,40.25,0,0,1-8.71-3.63,47.31,47.31,0,0,0-8.71-3.87,170,170,0,0,0-20.14-5.5,111.27,111.27,0,0,0-21.32-2.35,139.87,139.87,0,0,0-21.18,1.68c-6.79,1-13.33,2-19.65,2.72-3.86.53-9.52,1.53-13.42,1.6-8.73-.24-16-.72-23.43-1.5a218.13,218.13,0,0,1-23.76-3.71c-5.44-1.2-10.71-2.69-15.92-4.33S102.6,66.92,97.54,65A280,280,0,0,1,67.11,51.35c-2.73-1.15-5.91-3.57-9-6.1s-6.24-5.15-8.95-6.61C31.4,28.11,18,18.31,2.67,7.9-.75,5.58-4.5,3.77-7.92,1.45c-5.94-3.61-11-7.33-16.26-10.95l-1.16,1.72a9.92,9.92,0,0,0-1,.47C-15.95-.88-6.25,6.62,4.38,12.74,14.12,18.6,22.84,25.06,31.6,31.45c4.37,3.2,8.77,6.39,13.29,9.46A130.93,130.93,0,0,0,59,49.43a65.58,65.58,0,0,0,8,3.09c2.37.8,4.25,1.39,5,2.12a92.66,92.66,0,0,0,18.9,9.51C97.72,66.77,105,69,112.77,71.58c5.74,2.26,1,4.08,4.94,5.19,17.35,4.64,35.08,8.18,52.82,8.29a134.85,134.85,0,0,0,26.38-2.5c8.79-1.58,17.71-3.58,27-4.42A96.89,96.89,0,0,1,238,77.87a118.73,118.73,0,0,1,13.87,1.62,180.66,180.66,0,0,1,26.65,7,306.67,306.67,0,0,1,49.87,22c7.22,4,14.16,4,23.13,9.25,3.42,2.44,6.53,5.41,8.35,6.39,10.43,5.69,21.33,11.88,31.85,17.33s20.94,9.69,30,11.07Z"/><path class="cls-5" d="M179.42,95c1.19,0,2.39-.08,3.59-.17s2.42-.15,3.63-.26c2.42-.23,4.83-.5,7.22-.83,4.8-.63,9.52-1.44,14.25-2.17l4-.62-16,2.29C190.62,94.06,184.93,94.65,179.42,95Z"/><path class="cls-5" d="M226.85,89.44a90.78,90.78,0,0,1,14.4.59c4.62.53,8.78,1.33,11.68,2a60.59,60.59,0,0,0-20.5-3.9l-2.09.61A21.8,21.8,0,0,1,226.85,89.44Z"/><path class="cls-9" d="M379.15,148.82c6.6,3.48,13.48,7,20.81,10.16a123.81,123.81,0,0,0,23.52,7.63C407.25,161.48,393,154.62,379.15,148.82Z"/><path class="cls-10" d="M425.23,161.32c-10.3-1.58-21-5.62-31.53-11-5.32-2.69-10.64-5.71-16.11-8.85s-11.11-6.47-16.95-9.95c-11.37-7.06-26.29-14-41.86-20.52-7.78-3.26-15.71-6.43-23.46-9.52S280,95.37,272.94,92.24c-4.09-1.79-10.37-3.09-17.35-4S241,86.62,233.79,85.9c-2.83.47-5.44,1.57-6.13,0-9.44.55-19.26,2.52-29.39,4a145.64,145.64,0,0,1-15.38,1.56,129.52,129.52,0,0,1-15.17-.22,218,218,0,0,1-31.12-4.76c-10.2-2.23-20.22-5-30.17-7.92a255.14,255.14,0,0,1-29.5-10.39,146.94,146.94,0,0,1-14.11-7c-4.57-2.59-9-5.43-13.23-8.39-6.39-4.32-12.71-9-19.19-13.62L10.76,24.94C-2.5,15.35-16,5.69-29.69-3.37c-.82,3.66,2.27,8.89,11.18,14.93C-1.44,24.26,14.54,35.64,30,46.35,37.73,51.66,45.34,57,53.47,61.9c4.05,2.43,8.25,4.75,12.54,6.83s8.62,4,13,5.67c6.68,2.26,13.34,4.24,19.89,6.13s13,3.71,19.41,5.61l-20.25-5c8,2.42,16,4.6,24.18,6.65S138.86,91.61,147.6,93l-1.52-.32c4.17.68,8.39,1.28,12.75,1.7,5.45.36,11,.7,16.73.69a148.85,148.85,0,0,0,17-.88c3.86-.45,9.66-1.34,15.75-2.3,1-.17,6.24-1.28,11.84-2s11.58-.75,14.71-.11c2,.1,3.34.21,3.9.26a128,128,0,0,1,25.37,5.29c4.13,1.26,8.24,2.64,12.29,4.13q3,1.06,6,2.23c2,.77,4,1.52,5.95,2.33a171,171,0,0,1,27.76,11.66c6.23,3.41,14.23,7.39,20.68,10.69,3.23,1.62,6.06,3.1,8.11,4.15a29.69,29.69,0,0,1,3.33,1.85l13.83,7.09c6.91,2.79,13.75,5.78,20.62,9.09S396.6,155.49,404,159.1A123,123,0,0,0,416.29,163c7.71,1.94,11.42,1.3,12.53.09A35.59,35.59,0,0,1,425.23,161.32Z"/></g></g></svg>