<?xml version="1.0" encoding="utf-8"?>
<!-- Generator: Adobe Illustrator 25.0.0, SVG Export Plug-In . SVG Version: 6.00 Build 0)  -->
<svg version="1.1" id="Layer_1" xmlns="http://www.w3.org/2000/svg" xmlns:xlink="http://www.w3.org/1999/xlink" x="0px" y="0px"
	 viewBox="0 0 94.57 83.26" style="enable-background:new 0 0 94.57 83.26;" xml:space="preserve">
<style type="text/css">
	.st0{fill:#F8B4C0;}
	.st1{fill:none;}
	.st2{fill:#707071;}
	.st3{font-family:'Tahoma-Bold';}
	.st4{font-size:39.0664px;}
</style>
<ellipse class="st0" cx="46.67" cy="41.63" rx="36.99" ry="35.89"/>
<g>
	<rect x="24.01" y="24.73" class="st1" width="47.69" height="50.53"/>
	<text transform="matrix(1 0 0 1 24.0103 54.4183)" class="st2 st3 st4">N</text>
	<rect x="45.04" y="24.73" class="st1" width="50.15" height="52.01"/>
	<text transform="matrix(1 0 0 1 45.0366 54.4183)" class="st2 st3 st4">B</text>
	<path class="st2" d="M61.35,17.36c-0.1-2.1-1.62-3.39-3.47-4.13c-2.11-0.84-4.78,0.08-6.78,0.86c-0.22,0.09-0.39,0.22-0.52,0.38
		c-0.23,0.11-0.45,0.23-0.66,0.36c-4.02,2.52-4.74,7.46-5.18,11.79c-0.14,1.37,1.73,1.53,2.29,0.5c0.16,0.74,0.93,1.04,1.55,0.9
		c0.1,0.34,0.34,0.59,0.63,0.73c0.2,0.22,0.48,0.35,0.78,0.39c0.47,0.68,1.86,0.74,2.29-0.31c0.68-1.64,0.69-3.44,1.14-5.14
		c0.2-0.76,0.47-1.48,0.78-2.18c1.12,1.18,2.83,1.58,4.39,0.85C60.51,21.47,61.45,19.4,61.35,17.36z"/>
	<path class="st2" d="M26.54,64.94c1.05-0.38,2.1-0.79,3.06-1.36c0.07-0.05,0.14-0.1,0.23-0.14c1.48-0.95,2.34-2.31,2.85-3.99
		c0.52-1.7,0.75-3.48,0.88-5.24c0.08-1.19,0.03-2.41,0.08-3.61c-0.18,0.11-0.33,0.26-0.44,0.45c-0.16-0.74-0.93-1.04-1.55-0.9
		c-0.1-0.34-0.34-0.59-0.63-0.73c-0.2-0.22-0.48-0.35-0.78-0.39c-0.47-0.68-1.86-0.74-2.29,0.31c-0.68,1.64-0.69,3.44-1.14,5.14
		c-0.2,0.76-0.47,1.48-0.78,2.18c-1.12-1.18-2.83-1.58-4.39-0.85c-1.91,0.89-2.85,2.95-2.75,4.99c0.1,2.1,1.62,3.39,3.47,4.13
		C23.64,65.45,25.12,65.31,26.54,64.94z"/>
</g>
</svg>
