<svg id="Layer_1" data-name="Layer 1" xmlns="http://www.w3.org/2000/svg" viewBox="0 0 13.96 13.74"><defs><style>.cls-1{fill:#ffb6c1;}</style></defs><g id="surface436128"><path class="cls-1" d="M4.36,2.24A2.39,2.39,0,0,0,2,4.63H2V9.86a2.38,2.38,0,0,0,2.38,2.38H9.6A2.38,2.38,0,0,0,12,9.86V4.63A2.39,2.39,0,0,0,9.6,2.24Zm0,.48H9.6a1.9,1.9,0,0,1,1.9,1.91V9.86a1.9,1.9,0,0,1-1.9,1.91H4.36a1.9,1.9,0,0,1-1.9-1.91V4.63A1.9,1.9,0,0,1,4.36,2.72ZM4.12,4.86a.71.71,0,0,0-.71.71V8.91a.71.71,0,0,0,.71.71H9.84a.71.71,0,0,0,.71-.71V5.57a.71.71,0,0,0-.71-.71Zm.1.48h5.5L7.61,7.43a.92.92,0,0,1-1.27,0h0Zm5.84.33V8.8L8.49,7.23Zm-6.19,0L5.43,7.23,3.88,8.8Zm4.29,1.9L9.72,9.14H4.24L5.8,7.57,6,7.8a1.39,1.39,0,0,0,2,0Z"/></g></svg>